<?xml version="1.0" encoding="iso-8859-1"?>
<!-- Generator: Adobe Illustrator 19.0.0, SVG Export Plug-In . SVG Version: 6.00 Build 0)  -->
<svg version="1.1" id="Capa_1" xmlns="http://www.w3.org/2000/svg" xmlns:xlink="http://www.w3.org/1999/xlink" x="0px" y="0px"
	 viewBox="0 0 512 512" style="enable-background:new 0 0 512 512;" xml:space="preserve">
<path style="fill:#F2F2F2;" d="M285.099,370.848c-83.36-222.528-0.117-357.739-0.117-357.739
	C99.413,111.136,53.472,365.344,53.472,365.344S155.691,313.621,285.099,370.848"/>
<path style="fill:#CDD6E0;" d="M282.72,366.219c68.896-38.048,143.915-18.027,143.915-18.027
	C446.859,112.821,282.72,13.109,282.72,13.109S363.499,200.139,282.72,366.219"/>
<path style="fill:#ACB3BA;" d="M282.72,412.501L282.72,412.501c-4.853,0-8.779-3.936-8.779-8.779V9.451
	c0-4.853,3.925-8.789,8.779-8.789c4.843,0,8.768,3.936,8.768,8.789v394.272C291.488,408.565,287.563,412.501,282.72,412.501"/>
<polygon style="fill:#FFD15C;" points="391.989,511.339 120.021,511.339 0,391.328 512,391.328 "/>
<path style="fill:#F8B64C;" d="M83.648,474.965c20.331,20.32,36.373,36.373,36.373,36.373h271.968c0,0,16.043-16.053,36.373-36.373
	H83.648z"/>
<g>
</g>
<g>
</g>
<g>
</g>
<g>
</g>
<g>
</g>
<g>
</g>
<g>
</g>
<g>
</g>
<g>
</g>
<g>
</g>
<g>
</g>
<g>
</g>
<g>
</g>
<g>
</g>
<g>
</g>
</svg>
